<svg xmlns="http://www.w3.org/2000/svg" width="229" height="62" fill="none" viewBox="0 0 229 62"><path fill="#fff" d="M41.664 15.28c0 2.72-.96 5.072-2.88 7.056-1.92 1.952-4.72 3.36-8.4 4.224 1.984.544 3.488 1.44 4.512 2.688 1.024 1.216 1.536 2.624 1.536 4.224 0 2.528-.8 4.72-2.4 6.576-1.568 1.856-3.872 3.296-6.912 4.32-3.04.992-6.704 1.488-10.992 1.488-1.6 0-2.88-.048-3.84-.144-.032.896-.416 1.568-1.152 2.016-.736.448-1.68.672-2.832.672s-1.952-.256-2.4-.768c-.416-.512-.592-1.264-.528-2.256.288-4.48.848-9.168 1.68-14.064.832-4.928 1.888-9.68 3.168-14.256.224-.8.672-1.36 1.344-1.68.672-.32 1.552-.48 2.64-.48 1.952 0 2.928.544 2.928 1.632 0 .448-.096.96-.288 1.536-.832 2.496-1.664 5.888-2.496 10.176-.832 4.256-1.424 8.32-1.776 12.192 1.536.128 2.784.192 3.744.192 4.48 0 7.76-.64 9.84-1.92 2.112-1.312 3.168-2.976 3.168-4.992 0-1.408-.608-2.592-1.824-3.552-1.184-.96-3.184-1.488-6-1.584-.64-.032-1.088-.192-1.344-.48s-.384-.752-.384-1.392c0-.928.192-1.68.576-2.256.384-.576 1.088-.88 2.112-.912 2.272-.064 4.32-.4 6.144-1.008 1.856-.608 3.312-1.456 4.368-2.544 1.056-1.12 1.584-2.416 1.584-3.888 0-1.856-.912-3.312-2.736-4.368-1.824-1.088-4.624-1.632-8.4-1.632-3.424 0-6.736.448-9.936 1.344-3.2.864-5.92 1.968-8.16 3.312-1.024.608-1.888.912-2.592.912-.576 0-1.024-.192-1.344-.576-.288-.416-.432-.928-.432-1.536 0-.8.16-1.488.48-2.064.352-.576 1.168-1.232 2.448-1.968 2.688-1.536 5.84-2.736 9.456-3.6a47.545 47.545 0 0 1 11.088-1.296c5.792 0 10.112.976 12.96 2.928 2.848 1.952 4.272 4.528 4.272 7.728zm4.325 30.96c-1.984 0-3.568-.72-4.752-2.16-1.184-1.44-1.776-3.328-1.776-5.664 0-2.56.592-4.976 1.776-7.248 1.184-2.304 2.752-4.144 4.704-5.52 1.984-1.408 4.08-2.112 6.288-2.112.704 0 1.168.144 1.392.432.256.256.464.736.624 1.44a11.27 11.27 0 0 1 2.112-.192c1.568 0 2.352.56 2.352 1.68 0 .672-.24 2.272-.72 4.8-.736 3.68-1.104 6.24-1.104 7.68 0 .48.112.864.336 1.152.256.288.576.432.96.432.608 0 1.344-.384 2.208-1.152.864-.8 2.032-2.08 3.504-3.84.384-.448.816-.672 1.296-.672.416 0 .736.192.96.576.256.384.384.912.384 1.584 0 1.28-.304 2.272-.912 2.976-1.312 1.632-2.704 3.008-4.176 4.128s-2.896 1.68-4.272 1.68c-1.056 0-2.032-.352-2.928-1.056-.864-.736-1.52-1.728-1.968-2.976-1.664 2.688-3.76 4.032-6.288 4.032zm1.728-4.848c.704 0 1.376-.416 2.016-1.248.64-.832 1.104-1.936 1.392-3.312L52.901 28c-1.344.032-2.592.544-3.744 1.536-1.12.96-2.016 2.24-2.688 3.84a13.005 13.005 0 0 0-1.008 5.088c0 .992.192 1.728.576 2.208.416.48.976.72 1.68.72zm42.66-6.096c.415 0 .735.192.96.576.255.384.383.912.383 1.584 0 1.28-.304 2.272-.912 2.976-1.44 1.76-2.896 3.168-4.368 4.224-1.472 1.056-3.216 1.584-5.232 1.584-2.464 0-4.448-.704-5.952-2.112C73.752 42.72 73 40.848 73 38.512c0-1.248.64-2.144 1.92-2.688 1.408-.608 2.416-1.248 3.024-1.92.608-.704.912-1.552.912-2.544 0-.576-.128-1.008-.384-1.296a1.047 1.047 0 0 0-.864-.432c-.864 0-1.824.624-2.88 1.872-1.024 1.248-1.984 2.864-2.88 4.848a33.875 33.875 0 0 0-2.112 6.048c-.352 1.504-.768 2.528-1.248 3.072-.448.512-1.168.768-2.16.768-.992 0-1.728-.352-2.208-1.056-.448-.736-.752-1.856-.912-3.36-.16-1.504-.24-3.712-.24-6.624 0-4.928.496-10.064 1.488-15.408 1.024-5.344 2.512-9.824 4.464-13.44C70.904 2.704 73.272.88 76.024.88c1.472 0 2.656.64 3.552 1.92.928 1.248 1.392 2.88 1.392 4.896 0 3.232-.944 6.592-2.832 10.08-1.888 3.456-4.96 7.504-9.216 12.144a89.201 89.201 0 0 0-.144 5.136c1.536-4 3.296-6.896 5.28-8.688 1.984-1.824 3.84-2.736 5.568-2.736 1.6 0 2.88.544 3.84 1.632.992 1.088 1.488 2.432 1.488 4.032 0 1.76-.448 3.376-1.344 4.848-.896 1.472-2.432 2.784-4.608 3.936.128.864.512 1.568 1.152 2.112.672.512 1.472.768 2.4.768.992 0 1.952-.384 2.88-1.152.928-.768 2.144-2.048 3.648-3.84.384-.448.816-.672 1.296-.672zM75.016 5.632c-.577 0-1.217.832-1.92 2.496-.705 1.632-1.393 3.856-2.065 6.672-.64 2.784-1.168 5.824-1.584 9.12a33.69 33.69 0 0 0 4.896-7.632c1.312-2.752 1.968-5.248 1.968-7.488 0-1.024-.112-1.808-.336-2.352-.224-.544-.544-.816-.96-.816zm34.242 29.664c.416 0 .736.192.96.576.256.384.384.912.384 1.584 0 1.28-.304 2.272-.912 2.976-1.184 1.44-2.864 2.768-5.04 3.984a13.783 13.783 0 0 1-6.912 1.824c-3.36 0-5.968-.912-7.824-2.736-1.856-1.824-2.784-4.32-2.784-7.488 0-2.208.464-4.256 1.392-6.144.928-1.92 2.208-3.44 3.84-4.56 1.664-1.12 3.536-1.68 5.616-1.68 1.856 0 3.344.56 4.464 1.68 1.12 1.088 1.68 2.576 1.68 4.464 0 2.208-.8 4.112-2.4 5.712-1.568 1.568-4.24 2.816-8.016 3.744.8 1.472 2.32 2.208 4.56 2.208 1.44 0 3.072-.496 4.896-1.488a16.468 16.468 0 0 0 4.8-3.984c.384-.448.816-.672 1.296-.672zm-12.096-6.96c-1.184 0-2.192.688-3.024 2.064-.8 1.376-1.2 3.04-1.2 4.992v.096c1.888-.448 3.376-1.12 4.464-2.016 1.088-.896 1.632-1.936 1.632-3.12 0-.608-.176-1.088-.528-1.44-.32-.384-.768-.576-1.344-.576zm28.924 1.872c.704 0 1.296.256 1.776.768.512.48.768 1.088.768 1.824 0 .416-.096.864-.288 1.344-.512 1.184-1.232 2.176-2.16 2.976-.928.8-1.952 1.2-3.072 1.2-.896 0-1.664-.32-2.304-.96-.608-.64-.912-1.504-.912-2.592 0-.608.032-1.264.096-1.968.064-.512.096-.864.096-1.056 0-.256-.064-.448-.192-.576a.456.456 0 0 0-.384-.192c-.448 0-1.056.544-1.824 1.632-.768 1.056-1.536 2.464-2.304 4.224a34.479 34.479 0 0 0-1.872 5.568c-.352 1.536-.752 2.56-1.2 3.072-.448.512-1.184.768-2.208.768-1.216 0-2.08-.64-2.592-1.92-.48-1.28-.72-3.328-.72-6.144 0-4.16.592-8.112 1.776-11.856.288-.928.752-1.6 1.392-2.016.672-.448 1.6-.672 2.784-.672.64 0 1.088.08 1.344.24.256.16.384.464.384.912 0 .512-.24 1.664-.72 3.456a73.65 73.65 0 0 0-.768 3.36c-.192.96-.352 2.144-.48 3.552 1.056-2.752 2.24-4.992 3.552-6.72 1.312-1.728 2.592-2.96 3.84-3.696 1.248-.736 2.384-1.104 3.408-1.104.928 0 1.632.272 2.112.816.512.512.768 1.28.768 2.304 0 .608-.176 1.76-.528 3.456h.432z"/><path fill="#BC8157" d="M149.612 32.56c.896 0 1.344.672 1.344 2.016 0 2.528-1.984 3.792-5.952 3.792-.768 0-1.872-.144-3.312-.432.416 1.984.752 4.192 1.008 6.624.288 2.4.432 4.384.432 5.952 0 3.456-.56 6.096-1.68 7.92-1.12 1.824-2.592 2.736-4.416 2.736-2.304 0-3.952-1.632-4.944-4.896-.96-3.264-1.44-8.192-1.44-14.784 0-6.144.656-12.368 1.968-18.672 1.344-6.336 3.168-11.568 5.472-15.696 2.336-4.16 4.896-6.24 7.68-6.24 1.504 0 2.672.672 3.504 2.016.864 1.344 1.296 3.152 1.296 5.424 0 7.52-4.496 15.712-13.488 24.576-.32 3.136-.48 5.888-.48 8.256 0 3.296.112 6.672.336 10.128.224 3.488.592 5.232 1.104 5.232.96 0 1.44-1.664 1.44-4.992 0-2.496-.176-4.912-.528-7.248-.32-2.336-.768-4.8-1.344-7.392-.032-.416.096-.944.384-1.584.32-.64.704-1.2 1.152-1.68.448-.48.848-.72 1.2-.72.64 0 1.408.032 2.304.096.288.032.624.048 1.008.048 1.28 0 2.704-.112 4.272-.336.256-.032.528-.064.816-.096.288-.032.576-.048.864-.048zm-4.848-26.928c-.576 0-1.296.976-2.16 2.928-.832 1.952-1.664 4.544-2.496 7.776-.832 3.2-1.552 6.592-2.16 10.176 2.56-2.912 4.528-5.936 5.904-9.072 1.376-3.168 2.08-6.128 2.112-8.88 0-1.952-.4-2.928-1.2-2.928zm5.979 40.608c-1.216 0-2.08-.64-2.592-1.92-.48-1.28-.72-3.328-.72-6.144 0-4.16.592-8.112 1.776-11.856.288-.928.752-1.6 1.392-2.016.672-.448 1.6-.672 2.784-.672.64 0 1.088.08 1.344.24.256.16.384.464.384.912 0 .512-.24 1.664-.72 3.456a73.65 73.65 0 0 0-.768 3.36c-.192.96-.352 2.144-.48 3.552 1.056-2.752 2.24-4.992 3.552-6.72 1.312-1.728 2.592-2.96 3.84-3.696 1.28-.736 2.448-1.104 3.504-1.104 2.08 0 3.12 1.04 3.12 3.12 0 .416-.144 1.424-.432 3.024-.256 1.28-.384 2.08-.384 2.4 0 1.12.4 1.68 1.2 1.68.896 0 2.048-.704 3.456-2.112.416-.416.848-.624 1.296-.624.416 0 .736.192.96.576.256.352.384.832.384 1.44 0 1.184-.32 2.112-.96 2.784a13.323 13.323 0 0 1-3.168 2.4 7.855 7.855 0 0 1-3.792.96c-1.696 0-2.992-.432-3.888-1.296-.864-.864-1.296-2.032-1.296-3.504 0-.48.048-.96.144-1.44.064-.64.096-1.072.096-1.296 0-.512-.176-.768-.528-.768-.48 0-1.12.544-1.92 1.632-.768 1.056-1.536 2.464-2.304 4.224a34.479 34.479 0 0 0-1.872 5.568c-.352 1.504-.768 2.528-1.248 3.072-.448.512-1.168.768-2.16.768zm39.844-10.944c.416 0 .736.192.96.576.256.384.384.912.384 1.584 0 1.28-.304 2.272-.912 2.976-1.184 1.44-2.864 2.768-5.04 3.984a13.783 13.783 0 0 1-6.912 1.824c-3.36 0-5.968-.912-7.824-2.736-1.856-1.824-2.784-4.32-2.784-7.488 0-2.208.464-4.256 1.392-6.144.928-1.92 2.208-3.44 3.84-4.56 1.664-1.12 3.536-1.68 5.616-1.68 1.856 0 3.344.56 4.464 1.68 1.12 1.088 1.68 2.576 1.68 4.464 0 2.208-.8 4.112-2.4 5.712-1.568 1.568-4.24 2.816-8.016 3.744.8 1.472 2.32 2.208 4.56 2.208 1.44 0 3.072-.496 4.896-1.488a16.468 16.468 0 0 0 4.8-3.984c.384-.448.816-.672 1.296-.672zm-12.096-6.96c-1.184 0-2.192.688-3.024 2.064-.8 1.376-1.2 3.04-1.2 4.992v.096c1.888-.448 3.376-1.12 4.464-2.016 1.088-.896 1.632-1.936 1.632-3.12 0-.608-.176-1.088-.528-1.44-.32-.384-.768-.576-1.344-.576zm18.46 18.96c-1.664 0-2.944-.384-3.84-1.152-.864-.768-1.296-1.632-1.296-2.592 0-.832.304-1.552.912-2.16.608-.608 1.504-.912 2.688-.912.416 0 .896.048 1.44.144l1.296.144a5.92 5.92 0 0 0-.576-2.352c-.32-.736-.736-1.44-1.248-2.112a26.103 26.103 0 0 0-1.44-1.824c-.992 1.888-1.984 3.456-2.976 4.704a33.09 33.09 0 0 1-3.168 3.552c-.576.576-1.184.864-1.824.864-.512 0-.928-.176-1.248-.528-.32-.384-.48-.848-.48-1.392 0-.64.224-1.232.672-1.776l.624-.768c1.76-2.176 3.088-3.968 3.984-5.376.544-.928 1.184-2.16 1.92-3.696a137.473 137.473 0 0 0 2.16-4.848c.608-1.408 1.872-2.112 3.792-2.112.896 0 1.52.08 1.872.24.352.16.528.416.528.768 0 .192-.064.496-.192.912a6.937 6.937 0 0 1-.528 1.248c-.576 1.152-.864 2.128-.864 2.928 0 .48.16 1.008.48 1.584.352.576.88 1.296 1.584 2.16 1.024 1.344 1.792 2.496 2.304 3.456.544.928.816 1.952.816 3.072 0 .32-.032.768-.096 1.344 1.568-.608 3.408-2.224 5.52-4.848.384-.448.816-.672 1.296-.672.416 0 .736.192.96.576.256.384.384.912.384 1.584 0 1.216-.304 2.208-.912 2.976-1.6 1.984-3.136 3.344-4.608 4.08-1.44.704-3.232 1.088-5.376 1.152-1.28 1.088-2.8 1.632-4.56 1.632zm28.548-23.664c1.024 0 1.792.272 2.304.816.544.512.816 1.28.816 2.304 0 .832-.176 2.4-.528 4.704-.32 1.952-.576 3.808-.768 5.568-.192 1.728-.288 3.664-.288 5.808 0 1.216-.256 2.096-.768 2.64-.48.512-1.28.768-2.4.768-1.056 0-1.824-.272-2.304-.816-.48-.544-.72-1.36-.72-2.448 0-1.28.224-3.392.672-6.336.384-2.56.576-4.192.576-4.896 0-.512-.176-.768-.528-.768-.416 0-1.008.544-1.776 1.632-.768 1.056-1.536 2.464-2.304 4.224a34.479 34.479 0 0 0-1.872 5.568c-.352 1.504-.768 2.528-1.248 3.072-.448.512-1.168.768-2.16.768-.992 0-1.728-.352-2.208-1.056-.448-.736-.752-1.856-.912-3.36-.16-1.504-.24-3.712-.24-6.624 0-4.928.496-10.064 1.488-15.408 1.024-5.344 2.512-9.824 4.464-13.44 1.984-3.648 4.352-5.472 7.104-5.472 1.472 0 2.656.64 3.552 1.92.928 1.248 1.392 2.88 1.392 4.896 0 3.232-.944 6.592-2.832 10.08-1.888 3.456-4.96 7.504-9.216 12.144a89.201 89.201 0 0 0-.144 5.136c1.056-2.72 2.224-4.928 3.504-6.624 1.312-1.728 2.592-2.96 3.84-3.696 1.28-.736 2.448-1.104 3.504-1.104zm-4.608-18c-.576 0-1.216.832-1.92 2.496-.704 1.632-1.392 3.856-2.064 6.672-.64 2.784-1.168 5.824-1.584 9.12a33.69 33.69 0 0 0 4.896-7.632c1.312-2.752 1.968-5.248 1.968-7.488 0-1.024-.112-1.808-.336-2.352-.224-.544-.544-.816-.96-.816z"/></svg>